<?xml version="1.0" encoding="UTF-8"?>
<svg version="1.1" xmlns="http://www.w3.org/2000/svg" width="100" height="100">
<path d="M0 0 C9.57 0 19.14 0 29 0 C31.82984102 10.36983685 34.3710883 20.75513419 36.6875 31.25 C37.14842651 33.32984334 37.61027721 35.40947091 38.07392883 37.4887085 C38.48708957 39.34261087 38.89732426 41.19716465 39.30737305 43.05175781 C39.96092029 46.03422841 39.96092029 46.03422841 41 49 C41.12306015 48.41562164 41.2461203 47.83124329 41.37290955 47.22915649 C42.65114614 41.16183574 43.93321091 35.09533309 45.2175293 29.02929688 C45.6967083 26.76355527 46.17490181 24.49760501 46.65209961 22.23144531 C47.33710563 18.97926718 48.02562082 15.72784921 48.71484375 12.4765625 C49.03520851 10.94994492 49.03520851 10.94994492 49.36204529 9.39248657 C49.56217728 8.45166229 49.76230927 7.51083801 49.96850586 6.54150391 C50.14393417 5.71099518 50.31936249 4.88048645 50.50010681 4.02481079 C51 2 51 2 52 0 C55.96 0 59.92 0 64 0 C60.75959145 16.66252184 57.27668155 33.27108433 53.75 49.875 C53.52395081 50.94203156 53.29790161 52.00906311 53.06500244 53.10842896 C52.41508567 56.17426901 51.76266575 59.23956484 51.109375 62.3046875 C50.91163483 63.23807449 50.71389465 64.17146149 50.51016235 65.13313293 C50.32601776 65.99395981 50.14187317 66.85478668 49.95214844 67.74169922 C49.79180115 68.49458221 49.63145386 69.24746521 49.46624756 70.02316284 C49 72 49 72 48 75 C38.43 75 28.86 75 19 75 C15.04 59.16 11.08 43.32 7 27 C3.30264902 42.99319261 -0.37457071 58.99036091 -4 75 C-7.96 75 -11.92 75 -16 75 C-12.86217777 57.94015597 -9.35085776 40.96725074 -5.75 24 C-5.52395081 22.93047089 -5.29790161 21.86094177 -5.06500244 20.75900269 C-4.41625976 17.69282537 -3.76353237 14.62752614 -3.109375 11.5625 C-2.91163483 10.62712906 -2.71389465 9.69175812 -2.51016235 8.7280426 C-2.32601776 7.87032761 -2.14187317 7.01261261 -1.95214844 6.12890625 C-1.79180115 5.37681885 -1.63145386 4.62473145 -1.46624756 3.84985352 C-1 2 -1 2 0 0 Z " fill="#FFFFFF" transform="translate(26,13)"/>
</svg>
